With: Christian Bale, Tom Hardy and Anne Hathaway

Het is acht jaar geleden dat Batman (Christian Bale) in de duisternis is verdwenen en van een held in een banneling is veranderd. Hij heeft de schuld van de dood van Harvey Dent op zich genomen en voor het grotere goed alles opgeofferd. Deze leugen heeft een tijd standgehouden, want onder het gewicht van de Dent Act, een antimisdaadwet, zijn de criminele activiteiten in Gotham City verpletterd. Maar alles verandert met de komst van een sluwe inbreekster met een mysterieuze agenda. Veel gevaarlijker echter is de opkomst van Bane (Tom Hardy), een gemaskerde terrorist die meedogenloze plannen heeft voor Gotham en Bruce Wayne dwingt om uit zijn zelfopgelegde ballingschap terug te keren. Maar zelfs als hij zijn cape opnieuw aantrekt, zou Batman wel eens geen partij voor Bane kunnen zijn.

Eight years on, a new terrorist leader, Bane, overwhelms Gotham's finest, and the Dark Knight resurfaces to protect a city that has branded him an enemy. 
 
http://www.imdb.com/title/tt1345836	

------------------------ Dutch Friends ------------------------
---------------------------------------------------------------
- Bezoek ook eens mijn vrienden op:  http://www.Film-Test.nl --
----- voor mijn Nederlandse Sync. ondertitels ---- en meer ----
------- http://www.Film-Test.nl ---- Over Films en meer -------
---------------------------------------------------------------

General:

Complete name                    : The Dark Knight RisesThe Dark Knight Rises.avi
Format                           : AVI
Format/Info                      : Audio Video Interleave
File size                        : 2.12 GiB
Duration                         : 2h 44mn
Overall bit rate                 : 1 842 Kbps

Video:

Format                           : MPEG-4 Visual
Format profile                   : Simple@L3
Format settings, BVOP            : No
Format settings, QPel            : No
Format settings, GMC             : No warppoints
Format settings, Matrix          : Default (H.263)
Codec ID                         : XVID
Codec ID/Hint                    : XviD
Duration                         : 2h 44mn
Bit rate                         : 1 447 Kbps
Width                            : 720 pixels
Height                           : 304 pixels
Display aspect ratio             : 2.35:1
Frame rate                       : 23.976 fps
Color space                      : YUV
Chroma subsampling               : 4:2:0
Bit depth                        : 8 bits
Scan type                        : Progressive
Compression mode                 : Lossy
Bits/(Pixel*Frame)               : 0.276
Stream size                      : 1.66 GiB (79%)
Writing library                  : XviD 1.1.2 (UTC 2006-11-01)

Audio:

Format                           : AC-3
Format/Info                      : Audio Coding 3
Mode extension                   : CM (complete main)
Codec ID                         : 2000
Duration                         : 2h 44mn
Bit rate mode                    : Constant
Bit rate                         : 384 Kbps
Channel(s)                       : 6 channels
Channel positions                : Front: L C R, Side: L R, LFE
Sampling rate                    : 48.0 KHz
Bit depth                        : 16 bits
Compression mode                 : Lossy
Stream size                      : 452 MiB (21%)
Alignment                        : Aligned on interleaves
Interleave, duration             : 32 ms (0.77 video frame)
Interleave, preload duration     : 320 ms